P2
80 60
255
215 210 88 104 88 160 227 225 49 251 120 63 192 93 42 220 77 240 254 69 75 99 26 147 178 103 79 169 34 136 88 133 220 126 239 31 233 248 91 163 113 110 253 68 22 117 30 175 80 118 228 152 132 110 195 83 85 249 198 35 
223 157 135 7 21 248 146 181 81 215 196 196 124 167 188 78 136 85 17 206 205 106 9 82 235 119 231 23 121 49 229 52 5 46 108 142 27 90 90 90 211 146 134 213 193 20 16 102 64 29 163 214 156 25 171 244 188 236 6 126 
241 36 146 200 120 21 206 188 229 91 254 58 56 140 244 250 37 78 76 230 237 31 50 174 164 137 127 118 178 249 241 131 168 221 76 238 6 220 197 247 115 107 102 176 143 219 211 30 41 99 50 71 44 181 180 220 92 3 135 91 
39 93 204 94 213 64 251 107 83 233 14 225 174 4 211 146 170 19 200 95 74 175 143 87 26 134 143 109 19 127 40 12 243 247 245 92 149 162 246 102 184 174 102 134 165 250 241 101 4 246 113 155 86 253 203 170 253 126 28 58 
62 53 60 51 242 237 83 95 146 203 161 233 182 187 206 139 1 153 124 52 217 206 87 182 125 185 33 123 157 201 34 206 145 122 226 219 62 9 12 67 139 43 214 245 204 233 82 145 77 39 198 198 53 43 16 239 89 247 194 56 
165 247 135 158 27 85 199 18 19 34 143 247 236 117 213 224 240 215 42 151 125 184 89 119 164 69 186 134 44 1 174 15 70 161 119 222 51 219 173 70 244 209 39 249 69 250 136 76 233 120 117 23 208 0 111 121 104 204 169 99 
157 177 107 30 82 191 55 51 231 57 241 52 109 166 63 254 86 92 205 241 72 132 196 21 218 214 22 173 75 217 232 143 168 232 118 162 35 115 116 250 184 18 73 10 147 35 192 135 117 128 147 125 61 246 179 118 254 200 26 236 
111 196 113 180 6 195 149 83 118 146 74 115 90 133 1 147 41 191 36 27 16 230 250 55 148 228 101 197 11 218 37 230 74 165 52 104 207 101 98 47 149 153 50 124 60 140 245 41 134 185 148 245 124 185 79 198 19 109 134 190 
190 84 164 233 141 59 221 0 31 148 183 253 244 99 51 45 36 121 139 30 27 220 206 82 237 190 1 197 234 251 174 71 126 195 90 205 202 115 228 181 90 220 204 199 149 206 254 13 254 82 90 116 51 34 137 179 57 130 113 228 
157 35 205 172 101 5 70 191 125 223 86 201 130 139 67 117 109 156 198 32 205 82 230 17 219 70 28 63 182 235 204 98 244 209 117 215 138 126 165 171 68 207 115 131 187 44 88 111 6 65 1 18 80 186 3 177 14 52 181 25 
122 126 170 19 92 21 50 185 41 105 91 149 25 205 253 38 197 225 139 228 38 246 106 56 55 212 188 107 111 237 69 94 36 141 69 68 227 58 58 185 240 206 106 131 169 73 231 192 179 197 238 139 178 184 243 179 165 67 3 226 
94 58 0 136 12 32 241 164 24 4 49 212 62 128 206 218 165 158 161 131 25 151 92 17 24 125 103 106 180 117 63 12 24 226 18 5 131 183 171 9 2 52 63 189 128 223 249 83 69 74 212 216 114 122 227 248 108 229 135 150 
192 3 59 46 32 171 103 172 239 89 105 64 8 175 193 54 2 16 34 213 177 6 191 22 1 131 158 185 152 35 89 184 69 151 117 99 199 221 46 110 251 108 5 58 103 117 196 98 220 116 51 116 47 8 243 233 100 85 174 189 
192 79 229 30 123 198 185 228 252 16 100 94 38 224 101 62 152 44 159 215 87 168 155 209 36 38 186 222 43 136 173 33 39 4 59 71 123 122 49 205 42 246 33 112 102 50 61 250 76 9 219 33 100 179 53 155 228 37 223 162 
26 162 72 221 88 93 205 225 56 195 184 171 109 1 111 162 38 33 18 33 203 78 178 7 150 67 139 242 95 111 158 215 108 227 67 169 84 64 158 161 112 65 34 10 85 240 220 202 216 215 209 212 122 24 225 202 49 24 189 244 
0 230 243 56 208 18 173 204 242 8 209 181 113 111 197 194 249 200 33 81 105 191 54 178 58 73 19 158 167 128 187 33 8 47 20 185 215 37 131 158 209 120 117 19 228 17 2 82 155 46 245 153 191 197 48 161 102 202 152 23 
195 127 34 232 13 12 198 132 158 245 248 5 252 158 63 92 95 118 128 109 154 35 125 80 160 72 161 64 59 222 185 216 180 132 116 154 239 53 101 107 243 190 175 150 153 106 4 165 127 98 111 148 120 60 114 232 162 125 38 152 
216 208 92 192 196 85 234 247 128 197 67 185 54 171 33 185 208 62 153 81 76 82 127 246 176 159 79 252 130 121 41 116 36 180 190 70 125 250 42 163 151 156 176 131 29 55 109 116 59 176 243 194 39 222 88 71 158 138 69 225 
6 179 253 247 75 3 127 84 234 231 137 60 212 84 106 66 211 25 218 41 141 83 183 55 125 1 79 96 46 159 178 162 191 46 212 213 171 200 73 228 206 172 69 211 92 181 46 124 244 253 61 142 69 153 254 234 132 237 145 226 
41 55 221 34 231 140 172 210 85 171 63 14 126 82 185 8 57 186 43 182 73 81 19 145 149 77 141 230 192 217 23 158 203 250 55 170 143 101 160 222 111 134 19 82 25 74 15 6 56 13 161 242 1 90 130 112 83 40 195 154 
23 86 133 247 234 2 220 168 231 112 48 123 65 226 220 227 129 139 242 164 236 25 96 118 31 88 14 68 38 233 1 28 29 136 90 14 239 187 35 207 102 114 230 187 148 124 19 165 161 190 184 235 173 22 101 152 98 131 178 62 
181 173 181 63 124 138 135 106 219 216 102 104 1 141 254 143 64 160 211 42 115 150 139 181 183 39 107 227 99 131 41 90 150 33 114 67 25 30 215 238 168 1 217 10 65 67 226 165 141 44 67 98 218 55 8 57 77 113 146 55 
47 205 164 186 62 138 166 222 68 137 197 196 41 12 156 251 113 235 164 161 189 83 57 215 181 81 234 180 252 74 115 188 147 124 49 6 176 177 87 102 49 202 146 147 77 129 219 138 157 77 89 94 247 134 12 141 212 189 32 245 
93 214 210 223 235 130 127 230 173 9 130 76 245 234 92 50 100 159 44 118 55 48 112 10 78 173 170 109 145 222 105 145 118 205 190 22 32 102 230 10 169 203 127 186 218 179 235 165 188 41 240 224 131 150 94 77 40 121 74 228 
217 245 234 108 33 30 199 176 161 206 198 73 185 211 19 139 165 254 5 150 208 183 132 82 177 109 209 75 201 135 235 125 220 60 198 116 139 64 172 241 28 156 157 74 68 99 240 81 185 105 107 16 62 90 229 184 186 224 56 53 
67 39 117 179 159 254 163 55 61 231 153 189 30 213 137 79 185 32 121 202 54 157 236 194 87 174 42 7 101 166 202 37 246 228 28 74 191 109 69 26 193 100 217 124 128 152 243 126 4 22 104 223 231 1 158 3 252 80 116 193 
27 244 234 26 8 187 106 201 152 114 132 119 69 98 163 159 194 230 174 210 119 219 57 132 182 5 34 209 142 192 45 56 218 229 137 58 101 22 146 19 150 199 229 215 95 82 82 97 28 243 54 9 141 189 125 176 101 71 155 159 
41 157 199 39 253 140 218 178 50 226 86 16 239 1 11 155 90 185 62 23 9 77 231 58 146 147 106 183 90 228 44 155 241 94 188 135 159 246 25 222 91 4 206 247 254 227 64 181 151 41 118 202 148 8 92 232 32 151 92 51 
165 24 36 59 57 79 157 190 207 220 145 137 249 86 183 61 24 49 229 214 247 152 171 92 18 195 185 193 15 234 137 203 156 4 54 77 41 31 88 7 233 194 189 130 235 138 27 252 115 175 251 50 103 234 239 118 150 53 165 77 
176 150 45 162 56 213 100 73 197 42 14 60 61 193 168 185 185 152 139 171 137 61 126 44 92 86 167 4 101 135 174 89 2 60 103 9 250 135 231 163 252 79 38 76 85 201 229 62 41 135 185 50 150 19 235 33 140 117 210 243 
26 194 88 74 36 74 141 220 30 1 217 228 10 13 108 30 139 135 203 68 47 74 149 81 138 148 160 157 138 61 139 138 198 10 33 171 215 210 183 56 207 86 211 193 227 161 105 29 71 65 68 126 248 119 71 246 150 76 203 169 
153 25 214 248 206 223 161 41 46 110 53 68 46 107 82 118 130 243 205 43 130 216 97 18 98 150 195 209 47 122 202 128 242 241 165 254 52 66 172 193 70 70 196 95 211 39 139 165 49 1 18 69 241 71 131 80 3 190 42 97 
176 81 147 103 177 84 54 221 163 75 15 225 68 26 52 219 39 147 141 120 173 147 170 144 130 192 204 14 163 209 189 57 106 62 142 103 189 128 154 203 118 165 187 194 79 251 188 33 56 155 78 193 99 253 243 137 111 69 28 73 
202 140 175 70 89 102 118 42 91 166 164 56 110 17 48 168 68 134 209 229 220 24 2 228 231 158 39 41 50 226 90 94 51 168 5 75 195 164 165 181 176 128 246 29 101 177 181 222 245 191 34 186 100 17 98 185 23 227 24 178 
135 228 77 150 93 95 68 216 1 74 249 211 249 19 243 146 58 239 86 36 165 254 15 60 3 77 189 185 111 34 240 221 210 55 192 193 2 117 196 252 170 218 20 78 176 221 91 241 54 37 72 202 0 128 220 156 84 5 252 174 
16 228 53 69 144 172 48 39 39 42 73 115 244 133 180 90 98 44 198 197 169 218 111 195 216 239 200 187 28 247 103 158 125 12 201 36 174 127 200 11 148 180 179 138 110 31 117 96 115 70 71 189 124 81 222 232 230 175 105 174 
21 152 222 64 112 237 64 83 111 58 237 122 230 26 140 1 105 89 33 230 24 214 114 116 132 27 129 173 66 142 112 77 134 31 97 176 10 195 167 35 45 206 147 188 7 154 31 169 79 247 229 93 60 171 7 184 191 9 41 11 
97 58 42 42 97 55 126 163 254 149 34 232 181 159 25 6 63 246 229 251 156 202 33 146 155 160 251 37 96 22 80 87 213 39 242 153 167 136 141 230 41 115 249 114 126 178 128 69 176 199 146 101 188 24 141 2 73 240 58 67 
180 184 74 85 141 41 86 152 220 225 94 213 155 174 136 34 234 216 33 69 107 46 102 23 156 87 14 74 232 179 174 119 103 43 24 54 208 140 54 208 188 198 170 156 140 96 15 252 116 253 179 217 230 155 32 10 156 217 75 135 
216 50 137 116 151 21 44 196 190 91 139 238 247 18 125 246 78 116 97 91 101 233 102 230 147 240 186 3 170 190 250 202 11 116 94 130 196 56 102 20 147 160 185 30 67 123 220 182 156 243 20 134 236 52 59 241 220 45 73 198 
203 221 249 120 208 41 233 66 162 112 231 206 100 224 123 207 99 191 107 194 115 224 103 130 206 26 246 17 58 253 155 84 195 243 10 196 85 57 61 76 43 191 162 5 162 4 214 176 138 33 201 233 62 83 64 68 229 20 88 98 
46 91 4 214 174 76 98 151 134 189 140 201 170 171 83 39 154 125 60 100 181 138 117 37 143 155 91 137 70 76 94 88 215 130 103 137 192 170 232 148 181 161 95 100 128 165 34 119 57 225 32 235 93 139 94 40 175 42 144 39 
47 69 95 155 120 3 231 97 231 49 190 121 161 38 107 57 88 199 180 37 206 190 190 92 35 253 128 115 183 6 209 119 159 248 31 62 134 161 222 45 160 133 106 172 179 15 207 155 34 149 236 104 13 90 99 53 209 251 176 35 
4 127 178 57 57 27 193 1 168 213 240 234 170 122 230 40 170 53 244 220 252 27 142 67 145 59 212 12 221 124 242 196 168 113 175 25 69 205 68 232 88 24 243 159 105 104 64 138 254 190 209 97 85 6 25 186 162 146 69 94 
53 210 0 115 200 66 133 33 9 134 184 105 85 75 233 103 50 153 28 128 44 65 214 194 13 162 137 196 251 112 232 169 17 63 79 233 111 111 58 214 58 225 159 101 75 125 205 251 178 224 83 222 174 130 186 184 73 87 200 164 
203 223 136 182 24 108 90 228 64 96 63 193 199 159 2 183 70 184 119 121 87 190 240 148 250 43 236 139 191 117 8 251 190 191 201 168 128 129 221 128 58 188 200 30 58 21 26 26 90 176 215 155 194 185 67 70 146 22 109 85 
68 153 73 201 193 19 230 183 254 23 89 89 194 141 175 123 241 75 203 22 152 131 61 187 67 186 212 196 31 139 72 202 190 213 210 40 76 6 30 186 65 199 5 50 201 218 154 125 248 137 168 78 178 83 251 62 91 40 249 47 
43 29 246 210 107 238 209 234 226 103 150 82 169 37 138 212 59 32 165 145 173 141 59 83 251 117 161 193 199 123 61 108 217 243 98 28 133 227 229 0 162 221 115 107 26 67 55 132 254 183 80 76 135 186 229 213 5 245 252 203 
155 26 234 212 67 182 77 143 174 139 222 57 7 141 102 220 5 39 109 32 202 21 115 169 54 108 14 94 158 180 191 37 81 41 113 48 204 96 226 65 212 242 95 206 54 121 235 94 131 216 138 214 136 4 118 130 210 62 73 96 
120 88 109 62 2 36 233 225 38 57 167 168 202 92 51 76 4 88 1 158 184 195 21 20 5 172 143 233 240 128 103 95 167 84 232 65 254 105 241 237 192 56 16 115 84 121 14 59 1 160 144 45 189 203 225 246 53 161 193 171 
67 153 247 224 65 78 71 40 153 145 167 170 243 137 252 15 123 70 244 180 192 10 77 130 80 170 238 1 204 174 223 65 28 155 174 119 225 12 203 133 83 186 3 77 142 250 215 203 197 163 29 44 40 75 195 227 18 254 201 214 
95 181 220 110 2 64 64 27 78 71 36 82 181 148 73 151 30 147 29 195 61 138 234 46 243 67 232 222 11 44 33 179 89 73 148 195 34 23 28 25 120 11 194 233 16 113 219 112 35 9 254 202 92 135 103 74 74 225 76 32 
49 223 225 233 0 215 225 205 86 40 43 80 160 112 20 138 223 142 166 151 119 228 242 176 187 200 219 118 128 9 80 102 71 242 138 159 78 146 180 48 136 186 218 5 93 107 54 10 36 92 232 191 39 10 232 3 186 119 95 35 
108 22 8 78 46 106 244 21 89 226 236 107 42 15 54 7 188 247 25 133 212 133 157 200 115 226 217 35 215 33 12 62 109 118 152 54 146 87 233 38 131 165 188 13 4 73 206 229 204 203 38 84 70 123 59 222 203 246 8 97 
138 242 162 110 128 224 190 5 153 80 38 206 202 229 205 4 37 73 41 123 62 246 190 99 176 50 148 55 246 163 156 227 80 248 92 188 4 11 211 0 85 85 159 124 218 104 229 236 163 44 254 11 110 254 83 99 166 230 146 183 
169 193 233 25 52 59 164 240 17 31 10 7 68 64 198 80 187 53 220 249 119 195 137 169 11 238 77 214 46 38 13 183 209 104 147 115 13 90 133 101 133 146 15 92 28 166 9 181 69 235 136 208 43 58 150 196 28 224 136 241 
70 198 130 43 204 159 93 174 184 133 124 2 18 77 241 92 24 77 198 239 46 27 115 140 175 31 49 116 39 244 40 232 144 168 99 107 212 52 92 97 8 120 123 57 15 51 241 181 13 249 13 233 225 230 31 170 123 40 15 96 
62 206 252 244 106 116 68 227 218 241 200 27 44 204 214 170 70 233 15 20 20 240 200 22 107 39 122 38 70 227 10 121 163 243 193 97 166 23 37 95 13 134 187 197 85 211 101 61 12 27 1 85 108 65 53 122 55 92 238 249 
167 14 114 68 214 57 228 73 52 58 26 64 88 202 11 154 77 196 128 109 202 103 231 31 239 184 78 216 213 32 34 205 56 226 91 117 57 141 54 204 109 253 140 203 146 48 18 92 202 248 62 11 216 205 249 17 79 51 116 127 
27 91 199 144 38 147 197 166 30 87 20 14 208 176 93 231 20 25 144 24 61 238 147 41 197 81 86 204 209 8 19 51 209 18 50 186 200 175 71 84 243 165 130 156 219 193 29 113 137 82 0 189 78 102 24 5 118 14 90 155 
229 90 135 74 45 93 232 247 34 187 139 243 75 127 197 157 213 187 39 246 170 242 122 176 221 71 203 154 46 7 30 236 48 127 120 87 222 131 130 132 102 55 218 90 11 1 91 242 63 111 87 155 48 238 154 56 57 15 240 172 
235 109 246 239 107 79 247 142 114 72 7 108 234 206 108 60 115 151 134 27 47 44 26 207 173 249 236 98 196 28 108 2 183 151 154 137 75 133 152 174 61 195 14 118 165 253 201 241 210 141 169 6 201 172 27 62 158 168 79 200 
99 121 56 18 189 246 70 223 173 14 64 45 28 142 110 128 134 227 123 218 13 46 189 173 56 0 205 10 236 102 247 209 87 128 213 230 94 60 16 71 78 232 122 231 67 90 164 253 105 122 193 146 206 69 26 35 174 65 25 186 
150 25 216 58 208 7 102 107 138 123 54 64 195 109 7 21 223 239 72 227 225 141 29 46 150 171 209 86 113 57 214 3 218 45 43 183 4 92 173 248 19 249 25 220 9 173 98 56 72 152 191 191 30 13 96 212 101 51 96 218 
237 77 245 53 126 196 95 85 112 84 195 198 69 129 178 182 206 53 138 83 124 93 253 186 35 161 14 237 210 38 116 226 82 228 117 138 23 78 182 103 155 159 49 25 2 217 186 188 80 236 68 42 55 73 250 197 159 29 200 148 
53 25 134 189 55 144 252 157 119 61 180 66 144 185 61 92 19 203 196 169 115 83 154 179 211 114 63 43 26 167 7 46 181 90 136 131 66 179 87 183 146 181 67 251 73 23 32 246 132 71 17 196 119 223 215 157 60 5 34 84 
181 211 91 68 3 50 104 202 107 222 253 76 147 207 47 126 224 115 106 133 191 142 81 202 94 181 192 139 174 155 33 116 79 97 6 121 95 60 40 132 170 189 12 83 89 75 84 28 173 220 206 87 37 141 162 38 111 133 199 88 
18 156 232 91 56 244 14 83 83 152 203 109 202 43 70 192 47 101 36 120 159 221 38 77 98 51 122 199 243 189 253 158 153 214 106 57 187 115 49 10 65 46 211 158 44 219 7 233 243 22 217 108 146 233 207 248 81 242 77 220 
5 231 131 192 118 48 187 6 207 217 90 60 23 75 24 170 173 181 187 0 104 246 137 71 220 221 206 37 144 74 159 21 158 88 175 46 97 17 111 217 16 51 224 36 226 84 48 238 247 173 204 250 120 9 219 141 77 77 68 23 
159 244 215 82 187 133 55 182 49 92 185 108 86 142 220 47 132 208 48 95 119 222 148 26 49 40 43 6 235 223 37 185 60 151 251 95 186 181 145 149 57 168 154 123 46 17 193 24 68 135 249 142 63 172 62 203 38 101 67 209 
47 122 76 138 188 166 35 22 203 212 213 136 201 137 68 102 89 136 7 224 6 123 231 172 143 17 181 191 139 0 139 204 229 121 200 228 175 188 102 146 37 30 219 28 241 16 16 165 182 159 156 214 96 238 131 196 202 247 0 79 
56 76 76 253 34 187 143 146 246 44 248 191 192 108 80 139 86 96 178 253 57 133 241 112 80 81 155 244 140 81 167 13 224 63 95 201 84 49 215 65 40 7 56 141 100 231 12 212 94 135 113 8 59 195 189 50 208 175 226 94 
49 168 135 188 193 223 9 182 227 72 239 51 105 216 122 106 50 74 230 212 102 214 167 253 107 130 93 245 146 13 109 13 122 239 180 98 244 92 168 249 124 92 172 222 17 221 194 110 124 17 66 43 80 7 194 88 141 249 248 54 
17 67 185 163 170 213 66 62 189 142 153 10 90 118 214 189 70 233 53 208 167 185 26 145 150 227 9 168 217 87 188 178 77 196 23 118 59 83 34 100 128 153 114 5 71 34 184 150 221 75 246 254 212 114 69 8 57 184 234 84 
177 198 209 38 225 236 153 108 6 51 99 187 175 251 236 152 146 9 34 112 64 98 77 14 15 215 189 120 186 77 13 3 233 115 114 81 192 46 102 205 144 103 137 29 229 62 172 56 71 33 138 253 7 172 36 66 201 26 34 156 
103 155 95 103 114 56 189 149 202 78 17 88 64 75 73 82 239 138 179 222 210 167 178 59 155 139 84 120 94 62 44 234 50 153 243 202 149 53 36 222 133 129 82 73 60 175 83 61 138 239 172 25 103 47 226 122 161 252 214 35 
217 190 241 68 228 193 222 231 140 156 17 168 61 25 79 34 179 226 138 219 16 2 234 158 218 241 156 164 210 142 177 164 78 71 148 36 86 34 214 135 177 104 177 76 186 130 182 228 75 115 206 245 79 169 65 169 50 189 247 242 
161 66 214 66 239 214 57 145 123 181 93 247 5 66 125 106 220 104 113 148 117 117 34 37 224 87 135 106 55 170 111 204 227 175 57 248 56 244 241 150 5 192 35 58 205 217 203 31 91 32 41 162 117 10 240 1 161 88 120 54 
182 91 83 167 173 23 79 224 211 209 236 243 75 117 3 141 20 231 188 204 218 177 100 36 67 213 52 55 157 26 66 75 190 146 45 15 189 175 87 245 149 247 26 96 82 33 168 177 51 157 40 59 177 58 242 116 162 204 171 56 
183 14 241 216 23 85 206 35 156 96 132 242 180 106 16 127 146 152 211 140 190 71 87 193 125 91 114 31 28 232 125 206 174 246 133 17 41 88 80 201 199 195 99 141 149 212 111 100 92 53 206 250 138 93 88 206 233 138 39 188 
