P2
80 60
255
171 102 208 153 73 23 189 246 191 119 220 8 29 219 203 59 119 171 250 162 143 76 233 69 203 142 242 191 104 180 123 224 230 65 221 249 16 222 68 228 118 67 8 65 74 67 247 93 22 113 245 109 96 167 17 214 43 88 100 206 
39 163 123 133 119 31 161 195 139 246 48 107 162 177 146 178 223 97 64 104 236 48 64 141 153 230 183 56 172 30 87 189 25 189 3 195 101 232 19 50 72 126 108 19 126 233 12 59 27 204 41 235 146 212 15 195 218 136 89 34 
196 179 178 66 83 253 189 144 116 135 235 122 132 253 90 58 32 137 41 135 114 203 65 95 29 140 114 35 16 11 141 196 35 153 105 223 109 226 204 24 23 155 125 166 142 105 82 185 60 163 132 64 178 86 177 220 167 156 125 180 
107 194 122 150 78 72 22 79 253 221 220 17 11 76 180 229 108 28 25 40 51 161 145 115 110 101 101 205 161 234 51 63 68 71 219 87 42 244 228 68 7 73 89 13 117 219 140 141 250 9 11 242 161 64 151 136 117 188 97 186 
67 122 139 86 13 61 102 14 168 25 33 88 17 104 140 29 57 206 41 139 79 227 188 14 187 113 223 237 165 136 175 136 81 15 59 254 175 168 178 70 100 244 160 84 188 94 219 122 190 104 228 13 160 252 78 137 55 81 232 213 
69 245 140 99 3 193 139 42 141 166 134 193 219 211 66 30 125 74 112 119 251 37 131 156 228 24 175 56 238 3 79 36 56 155 16 11 51 69 3 61 211 48 47 103 157 75 214 14 199 62 0 135 114 149 85 98 251 245 36 52 
30 170 52 240 54 98 167 215 185 27 15 108 130 183 46 48 152 61 153 219 114 111 122 2 93 187 134 237 14 214 173 254 94 67 100 191 94 181 136 153 15 108 136 45 190 228 0 70 86 86 17 248 134 60 221 249 106 60 219 158 
248 50 56 247 42 147 118 191 86 189 243 175 144 227 57 118 91 150 177 37 94 69 251 134 57 94 233 218 149 28 153 140 238 229 45 112 173 127 44 78 187 92 242 131 155 31 53 21 174 141 143 117 254 125 48 178 102 12 1 149 
146 78 90 149 163 155 200 156 29 1 71 122 35 48 219 44 66 39 186 209 148 94 36 219 194 45 3 176 167 172 97 20 217 204 139 237 172 34 215 155 87 241 163 74 232 100 97 132 212 254 99 172 209 129 204 138 201 52 152 31 
233 139 19 50 194 133 226 85 237 3 180 214 9 4 198 132 148 125 221 101 133 55 225 227 12 190 41 199 82 222 205 5 180 27 168 15 195 82 110 69 194 9 174 131 33 132 180 190 12 245 40 72 104 30 133 22 47 158 17 177 
162 22 250 57 208 44 174 91 183 60 164 82 160 0 47 123 72 80 51 229 208 88 40 30 133 233 213 178 111 70 241 248 28 214 216 232 183 73 3 247 215 214 19 120 133 231 202 170 162 29 217 21 153 40 249 8 201 140 235 124 
166 92 42 221 190 36 62 128 93 118 68 158 172 91 124 166 95 230 141 97 28 95 149 97 242 205 72 57 9 242 104 91 215 70 209 158 77 179 120 187 185 149 50 88 54 229 170 48 181 166 184 60 246 25 100 246 180 198 181 205 
225 127 169 202 146 129 128 38 218 36 136 12 60 183 169 245 146 109 160 247 88 110 54 97 107 58 27 169 133 92 3 66 48 222 144 145 243 208 248 178 2 100 114 181 238 143 140 90 89 87 5 141 195 52 254 96 8 229 87 215 
174 43 65 89 224 32 27 14 140 122 223 184 134 35 111 55 141 75 198 205 236 211 238 249 18 99 182 108 159 91 0 190 134 160 194 170 214 43 252 213 224 101 203 60 159 247 58 232 202 20 62 153 9 202 107 1 163 149 58 39 
251 177 239 159 163 73 147 157 47 240 16 105 208 201 99 108 161 142 57 239 8 251 225 49 71 150 221 147 79 139 106 81 158 59 168 96 32 165 51 144 23 132 203 184 27 51 90 50 96 139 197 95 186 5 160 34 219 76 34 183 
75 16 221 18 67 198 193 237 58 194 86 100 126 222 11 56 193 34 118 124 234 116 77 44 68 23 6 146 206 87 135 157 31 30 83 150 109 118 205 167 112 88 236 55 228 30 95 205 18 123 246 135 119 87 16 90 250 31 184 7 
101 26 5 50 79 117 20 76 66 1 128 131 132 49 43 13 121 227 45 72 9 22 130 91 184 102 189 243 33 12 26 181 14 230 215 79 9 101 133 120 229 13 208 63 251 149 211 22 88 173 215 50 91 24 116 202 85 96 43 53 
143 120 211 160 124 3 198 248 24 20 190 106 36 100 89 201 126 128 16 241 153 215 57 176 220 238 182 167 77 111 235 145 76 185 1 187 195 117 221 56 209 117 58 6 29 81 175 57 60 218 128 139 133 138 164 56 135 158 118 240 
138 69 253 96 216 20 66 223 37 234 75 240 196 190 24 228 194 81 253 249 44 245 223 107 145 218 184 210 226 161 106 66 77 59 91 101 104 85 239 197 92 99 181 106 110 13 123 94 214 107 20 137 208 152 91 173 130 92 188 183 
143 166 110 54 81 45 31 132 205 27 181 75 156 110 172 73 162 0 112 27 54 224 62 232 88 74 252 233 99 219 199 244 48 225 175 133 208 209 147 207 85 244 210 197 140 55 26 59 136 16 119 16 169 128 9 155 73 164 206 59 
11 6 246 115 239 176 51 165 177 214 205 192 209 56 58 154 122 162 81 22 70 92 145 10 130 213 81 228 247 239 15 189 143 198 114 125 112 89 238 25 30 243 49 72 22 53 220 230 134 49 144 41 176 38 242 25 185 247 71 135 
154 67 28 47 58 16 123 42 212 35 182 64 66 197 139 139 167 144 211 236 132 250 176 1 72 75 60 20 225 52 178 71 33 108 235 121 230 78 69 204 40 121 59 102 120 27 11 129 87 6 51 17 216 119 57 219 161 116 211 250 
21 224 174 112 41 222 75 112 112 79 94 190 113 245 225 193 20 17 214 47 145 212 188 161 15 202 45 153 161 185 199 238 54 251 167 25 52 227 24 238 250 213 232 58 150 114 176 179 156 26 125 70 154 140 185 157 226 111 185 77 
48 124 85 132 178 253 210 244 124 88 199 165 85 25 84 4 241 118 10 131 177 85 6 236 128 5 188 87 10 100 21 208 41 59 103 53 146 250 96 215 145 173 236 84 177 123 112 175 56 68 130 82 79 216 86 95 119 53 254 148 
238 46 77 5 213 25 212 165 140 232 174 203 137 241 10 164 119 33 133 171 14 40 8 6 71 63 191 186 237 63 170 127 169 99 191 4 37 216 130 142 231 69 183 223 254 157 93 130 239 70 58 231 236 246 32 248 22 180 93 166 
7 82 197 32 109 138 246 6 218 152 70 243 224 213 248 121 37 231 245 6 138 242 135 205 60 77 244 148 232 61 151 36 211 191 131 156 48 7 72 183 144 247 58 130 215 75 154 241 37 98 213 219 243 235 248 196 56 239 126 57 
10 127 254 185 233 109 182 143 75 79 198 200 36 252 66 194 11 0 146 167 146 26 71 82 206 137 117 149 134 8 252 139 244 202 69 199 66 244 43 25 212 185 243 228 243 107 137 227 153 148 4 93 172 130 199 74 190 190 90 79 
36 99 130 147 81 154 148 64 111 40 39 6 237 15 81 102 23 84 52 101 5 172 27 155 177 223 41 218 140 16 158 143 249 34 218 189 154 96 128 122 24 57 70 64 79 179 38 114 217 156 129 219 141 14 164 72 129 1 197 94 
40 183 199 80 200 233 129 173 45 187 83 233 217 204 135 192 201 150 52 86 48 56 171 138 1 210 163 81 207 248 233 38 56 184 227 17 63 242 110 120 253 133 122 1 217 173 179 219 128 185 8 69 116 93 175 156 103 136 160 17 
44 159 78 153 144 31 213 142 105 52 243 41 55 70 208 110 75 239 239 131 156 253 205 215 34 107 208 56 166 224 251 49 19 157 206 3 50 181 42 72 71 92 245 45 127 249 122 248 38 46 174 232 57 133 190 243 207 78 149 43 
251 75 116 93 87 57 170 69 177 91 64 167 60 227 53 21 173 201 47 200 200 188 75 29 69 222 6 238 42 18 236 110 115 164 46 103 16 174 135 58 41 89 241 228 36 119 229 178 31 8 17 204 208 239 5 118 164 67 205 156 
49 112 82 205 174 75 246 63 232 72 119 251 15 214 150 16 201 249 238 138 242 166 233 129 97 220 163 149 192 33 59 144 244 146 159 95 179 207 5 219 241 6 196 94 154 201 11 99 120 214 97 45 127 240 124 93 24 50 248 26 
86 182 21 213 18 78 90 27 253 3 246 120 71 131 68 71 8 12 2 41 243 114 161 218 25 196 60 32 118 128 16 248 62 117 86 90 47 146 46 206 34 163 72 199 77 104 231 65 241 98 238 249 12 233 206 147 18 0 25 62 
249 160 55 13 233 252 111 69 186 77 94 166 177 231 6 107 178 159 219 100 6 179 169 1 149 114 203 234 28 120 44 57 35 137 59 60 219 222 113 4 171 141 113 146 39 175 135 114 143 148 94 2 78 42 177 36 127 130 21 84 
212 176 1 145 47 196 119 226 84 113 107 206 252 19 198 204 165 2 83 24 199 180 167 35 211 137 53 44 73 31 50 166 181 126 55 159 66 80 24 73 125 238 171 87 177 25 106 44 48 190 17 3 12 246 13 193 221 110 158 79 
158 246 114 29 57 132 70 13 191 32 182 102 200 170 178 110 16 151 85 35 56 159 47 75 30 53 175 102 135 60 123 194 73 21 72 148 211 152 25 51 22 141 165 42 200 142 147 91 229 187 108 9 48 221 130 124 173 118 105 241 
229 0 103 36 208 235 241 62 171 241 73 23 185 229 21 19 66 37 0 165 137 209 103 8 91 49 47 99 6 23 196 75 24 117 195 120 113 120 57 143 42 81 55 80 17 101 225 207 57 120 58 18 89 237 243 222 189 122 250 83 
196 102 47 71 92 10 254 243 52 54 6 47 57 109 183 8 12 84 205 169 47 253 191 18 252 130 80 199 185 59 111 56 232 144 190 229 14 131 168 221 232 174 12 25 108 86 169 97 183 13 208 124 223 74 216 99 46 51 144 41 
206 54 106 36 242 23 48 77 46 19 141 193 70 220 191 185 78 155 160 6 118 169 217 113 54 219 209 163 178 31 97 114 11 237 243 35 74 122 231 162 210 164 37 181 221 43 112 79 30 118 233 139 175 148 171 79 182 177 169 24 
231 89 120 71 149 65 9 15 193 135 73 21 159 141 136 113 63 193 40 184 37 161 53 136 41 193 165 11 37 237 99 232 4 99 130 73 122 95 171 39 98 79 248 76 163 243 54 247 236 238 166 6 139 70 22 126 221 80 42 234 
158 71 203 135 87 83 184 187 253 104 229 169 75 54 250 136 74 30 228 19 1 100 180 2 194 16 159 117 245 203 111 238 115 14 107 140 88 249 120 68 60 220 17 52 96 74 66 168 34 114 160 229 162 146 3 119 222 86 224 232 
182 94 241 194 242 121 90 205 34 54 4 5 204 184 152 157 138 144 150 92 194 108 115 74 171 72 229 235 159 241 250 101 168 161 199 130 113 7 79 94 189 200 64 202 179 100 112 24 72 172 111 62 133 49 218 73 159 1 155 29 
82 26 150 1 158 85 161 0 199 165 146 191 235 213 34 161 87 71 22 215 204 130 26 31 215 35 206 221 208 117 246 239 237 254 241 123 0 195 38 87 12 243 29 143 38 97 146 247 193 59 67 122 243 157 104 51 234 27 142 81 
91 204 13 36 136 224 204 184 114 6 250 15 64 197 167 222 168 2 4 167 103 23 32 233 191 168 28 110 241 139 251 227 198 33 191 116 124 229 245 106 67 111 170 0 59 67 230 1 63 10 129 142 54 36 182 142 175 35 91 206 
197 224 195 12 133 157 225 131 252 116 41 141 50 230 50 72 137 71 47 9 132 228 109 135 51 161 217 120 31 34 102 71 22 193 21 9 152 112 163 47 62 190 153 21 121 90 118 139 7 219 72 186 115 235 185 129 214 54 80 83 
250 79 89 30 117 4 160 131 140 80 31 49 31 220 201 244 193 32 214 184 112 248 45 52 106 121 77 230 252 247 248 87 6 126 39 243 7 21 167 2 158 95 47 170 106 23 12 74 193 132 44 158 176 91 251 252 252 223 100 39 
144 84 42 1 232 245 162 50 113 131 213 117 62 159 230 120 6 184 84 238 87 174 98 11 32 161 198 86 182 174 37 28 206 146 20 196 91 207 197 164 5 3 40 145 46 192 206 239 73 32 50 37 71 58 6 47 1 253 32 242 
170 89 36 2 195 191 87 141 25 19 3 3 156 158 161 182 138 1 197 237 64 193 156 51 250 47 99 148 117 177 137 103 252 34 160 81 90 173 29 56 229 220 85 28 176 205 8 183 107 103 167 71 145 126 97 17 93 164 26 217 
169 28 19 138 49 244 54 176 176 85 104 210 224 200 91 114 52 71 244 166 105 149 22 8 206 227 237 133 54 71 74 122 122 147 98 7 116 123 191 189 114 215 107 223 243 235 45 1 12 184 233 251 192 105 12 159 242 58 55 97 
49 7 173 224 212 80 238 98 45 37 178 250 3 93 139 90 128 3 67 106 228 45 187 78 90 64 139 208 185 5 248 158 83 173 209 254 131 35 35 185 5 232 44 7 169 148 241 185 175 188 150 82 154 100 124 218 110 131 154 149 
184 75 152 153 164 151 183 63 74 57 43 228 186 251 111 127 6 9 75 65 8 53 78 35 249 222 66 159 139 217 90 63 66 92 218 191 72 211 147 106 96 56 182 87 112 189 36 182 17 37 16 198 17 15 40 249 33 200 107 78 
62 159 110 150 143 74 197 199 69 242 121 234 59 90 89 241 180 156 250 2 229 3 121 194 213 59 112 2 172 34 60 73 152 4 125 171 185 243 73 100 190 171 168 144 60 228 234 131 155 173 16 101 145 107 5 99 229 219 51 247 
137 76 250 249 217 245 253 170 234 59 153 133 96 185 188 165 41 35 2 61 8 194 64 216 42 168 167 221 179 92 126 152 23 208 231 55 242 162 35 227 117 199 87 11 183 18 2 2 145 187 99 217 0 41 174 234 111 119 128 66 
130 32 219 58 100 5 55 123 54 86 15 210 10 127 223 21 191 201 175 251 240 137 34 184 184 114 69 247 183 96 206 155 25 232 216 205 70 111 216 48 220 106 46 96 102 131 106 46 215 217 201 206 200 202 162 170 174 219 102 67 
222 37 214 2 21 79 76 14 7 140 80 206 177 12 207 23 29 101 83 39 247 147 223 93 115 215 207 46 244 68 14 163 4 17 145 124 5 124 40 151 105 205 215 140 151 154 230 157 78 96 56 74 198 239 246 242 237 172 188 228 
4 70 52 141 72 233 78 97 19 102 9 172 205 253 14 223 188 93 17 37 135 209 179 180 233 18 213 213 93 132 111 114 210 82 150 57 96 57 154 121 4 222 73 223 36 217 240 20 156 204 59 144 143 38 248 20 191 38 244 224 
136 56 159 149 233 124 191 161 34 57 25 158 196 152 99 240 126 19 102 178 178 181 24 28 76 148 131 128 81 232 84 231 143 187 151 178 175 194 250 30 231 160 163 173 72 3 201 9 125 133 17 123 5 111 169 57 167 199 46 196 
176 28 114 42 24 86 137 141 201 131 6 86 111 10 223 231 120 33 17 42 74 215 50 48 206 232 160 235 10 211 93 184 130 23 176 133 173 253 140 242 36 244 48 80 12 183 19 161 240 170 145 136 244 80 83 249 14 84 205 91 
196 162 141 13 6 72 77 198 169 113 142 161 148 202 173 218 217 253 119 244 209 181 219 138 104 13 6 146 54 151 109 96 39 156 244 49 187 82 209 43 193 231 225 150 36 211 103 16 191 5 66 45 223 163 37 177 49 247 226 14 
56 105 1 81 245 91 12 33 143 30 27 3 152 140 76 148 110 77 245 53 243 169 52 193 180 149 250 56 97 157 164 239 182 50 2 194 19 13 43 202 32 127 202 149 133 13 177 155 54 181 146 49 74 66 90 4 191 169 134 14 
207 60 2 81 16 141 165 133 133 95 7 232 9 216 218 136 217 113 182 20 123 73 196 96 17 121 215 225 88 59 2 4 231 58 27 227 17 31 249 33 46 40 74 235 77 76 151 32 207 131 131 106 83 249 123 130 45 143 220 89 
33 232 193 101 88 205 178 247 9 127 18 4 105 5 12 83 192 102 61 3 3 6 4 224 197 160 218 134 197 55 41 123 118 41 247 181 92 21 239 97 114 254 7 180 204 67 224 163 20 100 121 63 24 124 195 203 95 164 9 228 
55 76 64 42 55 155 134 220 207 215 118 105 10 124 149 180 219 194 200 64 93 232 18 110 93 62 63 15 80 83 32 227 6 179 161 221 149 226 138 126 112 188 125 22 128 148 1 231 91 146 186 232 203 205 112 145 37 147 226 123 
195 55 160 111 45 12 53 37 59 75 117 184 99 168 189 1 10 233 158 172 17 148 143 21 72 229 83 1 155 173 242 237 59 30 21 195 94 11 191 181 0 242 100 142 101 20 103 126 19 65 162 247 168 89 253 249 206 223 93 164 
208 162 25 89 42 24 164 194 154 173 135 47 106 180 126 62 191 1 228 226 83 50 10 36 8 249 130 105 48 141 83 51 187 60 244 6 145 51 227 23 81 141 125 234 202 162 27 192 109 239 173 138 3 50 222 63 195 56 93 92 
140 219 181 69 118 209 188 194 91 160 145 245 188 146 32 13 32 66 230 54 127 248 223 254 108 53 131 16 130 18 227 216 180 161 7 104 119 245 93 68 54 157 143 60 216 195 93 147 139 76 77 243 46 209 232 235 35 34 93 25 
7 156 126 251 69 38 233 128 247 176 67 0 53 72 69 35 17 244 42 173 156 180 236 11 185 14 254 166 22 222 17 83 28 89 118 236 170 254 243 184 98 2 138 51 107 53 195 212 129 21 31 14 162 193 75 113 98 63 28 131 
73 184 143 102 185 204 103 233 220 157 86 54 104 254 97 93 201 114 214 21 126 92 77 139 94 219 141 145 58 206 84 201 235 90 60 24 123 141 140 184 4 68 56 220 161 48 84 234 0 195 199 199 163 145 17 54 46 106 245 140 
149 63 43 106 139 26 103 181 215 154 162 190 84 150 104 89 85 138 200 216 25 91 29 147 169 56 155 186 36 250 103 225 202 33 59 213 47 102 88 63 42 39 51 249 86 158 189 184 197 47 92 136 28 188 8 91 71 86 3 64 
149 232 42 198 15 115 111 157 141 127 178 5 244 45 242 24 224 239 213 70 174 56 2 253 108 35 75 85 219 150 8 12 140 75 187 222 170 177 252 172 165 204 233 0 134 121 252 115 5 50 253 253 193 220 246 219 168 24 79 246 
28 146 215 171 60 113 90 170 200 85 243 203 118 6 17 170 66 244 48 182 36 81 123 186 211 155 241 78 78 252 178 136 16 242 15 86 81 25 27 214 26 252 24 194 154 242 50 19 93 242 101 88 130 27 118 125 8 185 186 36 
219 85 14 126 23 177 183 223 204 183 192 187 150 140 69 191 129 138 141 220 181 54 193 194 253 122 85 115 53 72 239 223 45 249 163 132 167 55 122 95 172 132 30 195 144 245 37 91 7 148 85 142 156 122 228 217 61 159 45 142 
62 126 50 120 101 145 80 78 178 31 224 99 172 131 179 129 102 110 233 233 51 182 86 207 200 57 183 38 139 200 161 99 38 166 137 12 14 116 104 20 47 77 189 96 80 228 212 44 137 87 220 97 80 141 160 220 40 108 18 93 
37 245 226 148 155 74 38 198 185 75 204 92 73 47 30 44 6 219 24 68 159 20 119 15 170 158 19 2 228 150 131 17 55 194 21 139 191 0 94 191 108 160 110 103 203 84 248 48 141 71 193 41 122 138 66 102 45 93 116 200 
205 60 113 68 207 38 89 48 222 118 13 253 250 52 18 242 19 163 82 163 252 91 122 212 39 24 75 149 26 11 224 160 229 42 214 150 245 216 59 122 235 28 159 119 181 180 251 27 78 248 160 138 13 144 4 130 92 48 225 60 
169 45 205 66 95 176 93 97 194 31 197 1 104 10 23 71 135 186 90 16 68 211 48 50 121 159 187 131 250 111 95 232 206 214 100 140 189 32 24 235 152 189 245 94 16 134 171 74 224 56 154 108 94 238 59 117 177 60 152 244 
103 208 189 175 73 141 107 163 97 69 144 6 218 211 218 149 242 77 226 246 31 156 251 98 197 241 137 127 152 90 237 47 124 100 62 14 239 125 137 126 59 161 253 201 71 90 18 70 83 110 208 163 46 112 142 131 66 130 193 205 
150 61 61 144 89 33 81 231 201 202 25 53 102 165 79 179 207 10 238 111 237 248 67 131 181 167 114 102 27 243 66 67 59 130 63 122 70 52 154 77 204 181 85 77 110 37 207 235 149 105 6 117 137 174 35 18 126 235 251 98 
209 82 167 233 174 1 249 186 238 114 181 220 5 217 21 184 124 77 51 230 96 192 82 179 243 13 178 51 90 25 26 38 212 22 98 196 54 162 149 25 56 67 9 118 78 189 224 213 172 91 53 46 61 50 209 95 189 230 133 192 
207 49 166 111 3 37 247 97 133 141 189 82 239 181 108 121 121 248 152 165 74 72 150 11 22 187 179 109 105 193 95 87 64 18 244 20 181 134 201 234 33 75 62 66 144 127 207 217 13 186 240 127 57 65 185 81 112 220 121 195 
